<svg xmlns="http://www.w3.org/2000/svg" xmlns:xlink="http://www.w3.org/1999/xlink" viewBox="0,0,256,256" width="60px" height="60px" fill-rule="nonzero"><g fill-opacity="0.16078" fill="#000000" fill-rule="nonzero" stroke="none" stroke-width="1" stroke-linecap="butt" stroke-linejoin="miter" stroke-miterlimit="10" stroke-dasharray="" stroke-dashoffset="0" font-family="none" font-weight="none" font-size="none" text-anchor="none" style="mix-blend-mode: normal"><g transform="scale(8.53333,8.53333)"><path d="M11.57617,3c-0.265,0 -0.52003,0.10497 -0.70703,0.29297l-1.93359,1.93555l-0.04883,-0.02539c-1.139,-0.569 -2.51111,-0.34631 -3.41211,0.55469c-0.034,0.033 -0.06575,0.06747 -0.09375,0.10547l-1.44727,1.9375c-0.254,0.339 -0.2672,0.8013 -0.0332,1.1543l0.65625,0.98438l-0.7168,1.4375c-0.118,0.236 -0.13964,0.50877 -0.05664,0.75977l2.82617,8.56055c0.469,1.339 1.40472,2.46302 2.63672,3.16602l5.25977,3.00586c0.153,0.087 0.32314,0.13086 0.49414,0.13086c0.171,0 0.34209,-0.04481 0.49609,-0.13281l5.25781,-3.00391c1.231,-0.703 2.16758,-1.82855 2.64258,-3.18555l2.82031,-8.54297c0.083,-0.251 0.06136,-0.52472 -0.05664,-0.76172l-0.7168,-1.43555l0.65625,-0.98437c0.235,-0.353 0.22175,-0.81334 -0.03125,-1.15234l-1.44922,-1.93555c-0.028,-0.039 -0.05975,-0.07442 -0.09375,-0.10742c-0.901,-0.902 -2.27116,-1.12469 -3.41016,-0.55469l-0.05078,0.02539l-1.93555,-1.93555c-0.187,-0.188 -0.44103,-0.29297 -0.70703,-0.29297zM15,7c1.718,0 2.03967,1.72316 4.88867,0.91016l1.82031,3.03711c0.372,0.521 0.36447,1.22337 -0.01953,1.73438l-2.36523,3.14063c0.409,0.328 0.67578,0.82563 0.67578,1.39062c0,0.82178 -0.55819,1.50417 -1.31445,1.71289c-1.00081,-0.06904 -1.65908,-0.55777 -2.68555,-1.25781v-1.01758l1.73047,-0.76562c0.43489,-0.19239 0.67417,-0.66441 0.57227,-1.12891l-0.55469,-2.53516c0.30562,-0.10347 0.40818,-0.2207 1.25195,-0.2207c0.36064,0.0051 0.69608,-0.18438 0.87789,-0.49587c0.18181,-0.3115 0.18181,-0.69676 0,-1.00825c-0.18181,-0.3115 -0.51725,-0.50097 -0.87789,-0.49587c-1.73913,0 -2.89844,0.57227 -2.89844,0.57227c-0.4034,0.20745 -0.61665,0.66042 -0.51953,1.10351l0.5918,2.71094l-1.17383,0.51953l-1.17383,-0.51953l0.5918,-2.71094c0.09712,-0.44309 -0.11613,-0.89606 -0.51953,-1.10351c0,0 -1.15931,-0.57227 -2.89844,-0.57227c-0.36064,-0.0051 -0.69608,0.18438 -0.87789,0.49587c-0.18181,0.3115 -0.18181,0.69676 0,1.00825c0.18181,0.3115 0.51725,0.50097 0.87789,0.49587c0.84377,0 0.94633,0.11724 1.25195,0.2207l-0.55469,2.53516c-0.1019,0.4645 0.13737,0.93652 0.57226,1.12891l1.73047,0.76562v1.01758c-1.02636,0.70009 -1.68402,1.18878 -2.68555,1.25781c-0.75626,-0.20872 -1.31445,-0.89111 -1.31445,-1.71289c0,-0.565 0.26678,-1.06263 0.67578,-1.39062l-2.36523,-3.14062c-0.384,-0.511 -0.39153,-1.21338 -0.01953,-1.73437l1.82031,-3.03711c2.849,0.813 3.17067,-0.91016 4.88867,-0.91016zM15,19.38867c0.59665,0.4094 1.19518,0.82373 1.88672,1.12305l-1.47461,1.32227c-0.118,0.105 -0.26411,0.1572 -0.41211,0.1582c-0.148,0 -0.29511,-0.0522 -0.41211,-0.1582l-1.47461,-1.32227c0.69149,-0.29933 1.2902,-0.71368 1.88672,-1.12305z"></path></g></g></svg>